REM DIRINDEX 1\6,1\2\7,1\2\8,1\2\9,1\3\10,1\3\11,1\4\12,1\4\13,1\4\14,1\5\15,1\5\16,1\5\17
REM DIRNAME cjc040,folder01,folder02,folder03,folder04,folder05,folder06,folder07,folder08,folder09,folder10,folder11,folder12,folder13,folder14,folder15,folder16
TITLE ""
FILE "P2Q_j_1268-1281.mp3" MP3
  TRACK 01 AUDIO
    TITLE "12:cjc040_0548"
    INDEX 01 00:00:00
  TRACK 02 AUDIO
    TITLE "0:"
    INDEX 01 00:01:17
  TRACK 03 AUDIO
    TITLE "13:cjc040_0549"
    INDEX 01 00:02:08
  TRACK 04 AUDIO
    TITLE "0:"
    INDEX 01 00:04:48
  TRACK 05 AUDIO
    TITLE "14:cjc040_0550"
    INDEX 01 00:05:22
  TRACK 06 AUDIO
    TITLE "0:"
    INDEX 01 00:08:68
  TRACK 07 AUDIO
    TITLE "12:cjc040_0551"
    INDEX 01 00:09:49
  TRACK 08 AUDIO
    TITLE "0:"
    INDEX 01 00:11:05
  TRACK 09 AUDIO
    TITLE "13:cjc040_0552"
    INDEX 01 00:11:60
  TRACK 10 AUDIO
    TITLE "0:"
    INDEX 01 00:13:45
  TRACK 11 AUDIO
    TITLE "14:cjc040_0553"
    INDEX 01 00:14:23
  TRACK 12 AUDIO
    TITLE "0:"
    INDEX 01 00:18:29
  TRACK 13 AUDIO
    TITLE "12:cjc040_0554"
    INDEX 01 00:19:11
  TRACK 14 AUDIO
    TITLE "0:"
    INDEX 01 00:20:47
  TRACK 15 AUDIO
    TITLE "13:cjc040_0555"
    INDEX 01 00:21:27
  TRACK 16 AUDIO
    TITLE "0:"
    INDEX 01 00:23:18
  TRACK 17 AUDIO
    TITLE "14:cjc040_0556"
    INDEX 01 00:24:00
  TRACK 18 AUDIO
    TITLE "0:"
    INDEX 01 00:30:18
  TRACK 19 AUDIO
    TITLE "12:cjc040_0557"
    INDEX 01 00:31:00
  TRACK 20 AUDIO
    TITLE "0:"
    INDEX 01 00:32:29
  TRACK 21 AUDIO
    TITLE "13:cjc040_0558"
    INDEX 01 00:33:09
  TRACK 22 AUDIO
    TITLE "0:"
    INDEX 01 00:35:63
  TRACK 23 AUDIO
    TITLE "14:cjc040_0559"
    INDEX 01 00:36:40
  TRACK 24 AUDIO
    TITLE "0:"
    INDEX 01 00:41:30
  TRACK 25 AUDIO
    TITLE "12:cjc040_0560"
    INDEX 01 00:42:02
  TRACK 26 AUDIO
    TITLE "0:"
    INDEX 01 00:43:39
  TRACK 27 AUDIO
    TITLE "13:cjc040_0561"
    INDEX 01 00:44:18
  TRACK 28 AUDIO
    TITLE "0:"
    INDEX 01 00:45:45
  TRACK 29 AUDIO
    TITLE "14:cjc040_0562"
    INDEX 01 00:46:19
  TRACK 30 AUDIO
    TITLE "0:"
    INDEX 01 00:50:17
  TRACK 31 AUDIO
    TITLE "12:cjc040_0563"
    INDEX 01 00:50:70
  TRACK 32 AUDIO
    TITLE "0:"
    INDEX 01 00:52:20
  TRACK 33 AUDIO
    TITLE "13:cjc040_0564"
    INDEX 01 00:52:73
  TRACK 34 AUDIO
    TITLE "0:"
    INDEX 01 00:54:56
  TRACK 35 AUDIO
    TITLE "14:cjc040_0565"
    INDEX 01 00:55:36
  TRACK 36 AUDIO
    TITLE "0:"
    INDEX 01 01:02:50
  TRACK 37 AUDIO
    TITLE "12:cjc040_0566"
    INDEX 01 01:03:27
  TRACK 38 AUDIO
    TITLE "0:"
    INDEX 01 01:04:60
  TRACK 39 AUDIO
    TITLE "13:cjc040_0567"
    INDEX 01 01:05:38
  TRACK 40 AUDIO
    TITLE "0:"
    INDEX 01 01:06:69
  TRACK 41 AUDIO
    TITLE "14:cjc040_0568"
    INDEX 01 01:07:47
  TRACK 42 AUDIO
    TITLE "0:"
    INDEX 01 01:12:11
  TRACK 43 AUDIO
    TITLE "12:cjc040_0569"
    INDEX 01 01:12:73
  TRACK 44 AUDIO
    TITLE "0:"
    INDEX 01 01:14:39
  TRACK 45 AUDIO
    TITLE "13:cjc040_0570"
    INDEX 01 01:15:19
  TRACK 46 AUDIO
    TITLE "0:"
    INDEX 01 01:17:32
  TRACK 47 AUDIO
    TITLE "14:cjc040_0571"
    INDEX 01 01:18:07
  TRACK 48 AUDIO
    TITLE "0:"
    INDEX 01 01:23:26
  TRACK 49 AUDIO
    TITLE "12:cjc040_0572"
    INDEX 01 01:24:02
  TRACK 50 AUDIO
    TITLE "0:"
    INDEX 01 01:25:51
  TRACK 51 AUDIO
    TITLE "13:cjc040_0573"
    INDEX 01 01:26:32
  TRACK 52 AUDIO
    TITLE "0:"
    INDEX 01 01:28:31
  TRACK 53 AUDIO
    TITLE "14:cjc040_0574"
    INDEX 01 01:29:05
  TRACK 54 AUDIO
    TITLE "0:"
    INDEX 01 01:32:64
  TRACK 55 AUDIO
    TITLE "12:cjc040_0575"
    INDEX 01 01:33:48
  TRACK 56 AUDIO
    TITLE "0:"
    INDEX 01 01:34:67
  TRACK 57 AUDIO
    TITLE "13:cjc040_0576"
    INDEX 01 01:35:47
  TRACK 58 AUDIO
    TITLE "0:"
    INDEX 01 01:37:26
  TRACK 59 AUDIO
    TITLE "14:cjc040_0577"
    INDEX 01 01:38:06
  TRACK 60 AUDIO
    TITLE "0:"
    INDEX 01 01:42:57
  TRACK 61 AUDIO
    TITLE "12:cjc040_0578"
    INDEX 01 01:43:37
  TRACK 62 AUDIO
    TITLE "0:"
    INDEX 01 01:45:59
  TRACK 63 AUDIO
    TITLE "13:cjc040_0579"
    INDEX 01 01:46:41
  TRACK 64 AUDIO
    TITLE "0:"
    INDEX 01 01:48:42
  TRACK 65 AUDIO
    TITLE "14:cjc040_0580"
    INDEX 01 01:49:24
  TRACK 66 AUDIO
    TITLE "0:"
    INDEX 01 01:53:63
  TRACK 67 AUDIO
    TITLE "12:cjc040_0581"
    INDEX 01 01:54:44
  TRACK 68 AUDIO
    TITLE "0:"
    INDEX 01 01:56:12
  TRACK 69 AUDIO
    TITLE "13:cjc040_0582"
    INDEX 01 01:56:69
  TRACK 70 AUDIO
    TITLE "0:"
    INDEX 01 01:58:03
  TRACK 71 AUDIO
    TITLE "14:cjc040_0583"
    INDEX 01 01:58:60
  TRACK 72 AUDIO
    TITLE "0:"
    INDEX 01 02:04:21
  TRACK 73 AUDIO
    TITLE "12:cjc040_0584"
    INDEX 01 02:05:01
  TRACK 74 AUDIO
    TITLE "0:"
    INDEX 01 02:06:69
  TRACK 75 AUDIO
    TITLE "13:cjc040_0585"
    INDEX 01 02:07:45
  TRACK 76 AUDIO
    TITLE "0:"
    INDEX 01 02:09:60
  TRACK 77 AUDIO
    TITLE "14:cjc040_0586"
    INDEX 01 02:10:40
  TRACK 78 AUDIO
    TITLE "0:"
    INDEX 01 02:15:45
  TRACK 79 AUDIO
    TITLE "12:cjc040_0587"
    INDEX 01 02:16:15
  TRACK 80 AUDIO
    TITLE "0:"
    INDEX 01 02:17:57
  TRACK 81 AUDIO
    TITLE "13:cjc040_0588"
    INDEX 01 02:18:37
  TRACK 82 AUDIO
    TITLE "0:"
    INDEX 01 02:20:11
  TRACK 83 AUDIO
    TITLE "14:cjc040_0589"
    INDEX 01 02:20:63
  TRACK 84 AUDIO
    TITLE "0:"
    INDEX 01 02:24:36
